<svg width="32" height="32" viewBox="0 0 32 32" fill="none" xmlns="http://www.w3.org/2000/svg">
  <!-- หมวกรับปริญญา -->
  <path d="M16 4L28 10V14H26V11L16 16L4 10L16 4Z" fill="#2563EB"/>
  <path d="M10 12.5V19C10 19 13 22 16 22C19 22 22 19 22 19V12.5L16 16L10 12.5Z" fill="#2563EB"/>
  <!-- หนังสือ -->
  <path d="M8 20H24C25.1 20 26 20.9 26 22V24C26 25.1 25.1 26 24 26H8C6.9 26 6 25.1 6 24V22C6 20.9 6.9 20 8 20Z" fill="#1D4ED8"/>
  <!-- พู่ -->
  <circle cx="16" cy="4" r="2" fill="#1D4ED8"/>
</svg> 